<?xml version="1.0" encoding="UTF-8" standalone="no"?>
<!DOCTYPE svg PUBLIC "-//W3C//DTD SVG 1.1//EN" "http://www.w3.org/Graphics/SVG/1.1/DTD/svg11.dtd">
<svg width="100%" height="100%" viewBox="0 0 98 20" version="1.1" xmlns="http://www.w3.org/2000/svg" xmlns:xlink="http://www.w3.org/1999/xlink" xml:space="preserve" xmlns:serif="http://www.serif.com/" style="fill-rule:evenodd;clip-rule:evenodd;stroke-linejoin:round;stroke-miterlimit:2;">
    <g id="shrimp" transform="matrix(0.7848,0,0,1,0,0)">
        <rect x="0" y="0" width="125" height="20" style="fill:none;"/>
        <clipPath id="_clip1">
            <rect x="0" y="0" width="125" height="20"/>
        </clipPath>
        <g clip-path="url(#_clip1)">
            <g transform="matrix(2.31481,0,0,1,0,0)">
                <rect x="0" y="0" width="54" height="20" style="fill:rgb(85,85,85);"/>
            </g>
            <g transform="matrix(0.972707,0,0,1,3.41165,0)">
                <rect x="54" y="0" width="71" height="20" style="fill:rgb(151,202,0);"/>
            </g>
            <g transform="matrix(0.127421,0,0,0.1,98.1709,14)">
                <g transform="matrix(110,0,0,110,-300.029,0)">
                    <path d="M0.286,-0.406L0.169,-0.406L0.169,-0.545L0.286,-0.545L0.286,-0.406ZM0.286,0L0.169,0L0.169,-0.139L0.286,-0.139L0.286,0Z" style="fill:white;fill-rule:nonzero;"/>
                </g>
                <g transform="matrix(110,0,0,110,-250.078,0)">
                    <path d="M0.48,-0.157C0.48,-0.107 0.459,-0.067 0.418,-0.035C0.377,-0.003 0.321,0.013 0.25,0.013C0.209,0.013 0.172,0.008 0.138,-0.001C0.105,-0.011 0.076,-0.021 0.054,-0.033L0.054,-0.136L0.059,-0.136C0.088,-0.114 0.12,-0.097 0.155,-0.084C0.191,-0.071 0.225,-0.064 0.257,-0.064C0.298,-0.064 0.329,-0.071 0.352,-0.084C0.375,-0.097 0.386,-0.118 0.386,-0.146C0.386,-0.167 0.38,-0.183 0.368,-0.194C0.355,-0.205 0.332,-0.215 0.296,-0.223C0.283,-0.226 0.266,-0.229 0.245,-0.233C0.224,-0.237 0.205,-0.241 0.188,-0.246C0.14,-0.258 0.106,-0.277 0.086,-0.302C0.066,-0.326 0.056,-0.356 0.056,-0.392C0.056,-0.415 0.061,-0.436 0.07,-0.456C0.079,-0.475 0.093,-0.493 0.112,-0.509C0.131,-0.524 0.154,-0.536 0.182,-0.545C0.21,-0.554 0.242,-0.559 0.276,-0.559C0.309,-0.559 0.342,-0.555 0.375,-0.547C0.409,-0.539 0.436,-0.529 0.458,-0.518L0.458,-0.419L0.454,-0.419C0.43,-0.437 0.402,-0.451 0.368,-0.463C0.335,-0.475 0.302,-0.481 0.27,-0.481C0.236,-0.481 0.208,-0.475 0.185,-0.462C0.161,-0.449 0.15,-0.43 0.15,-0.404C0.15,-0.382 0.157,-0.365 0.171,-0.354C0.185,-0.342 0.207,-0.333 0.237,-0.326C0.254,-0.322 0.273,-0.318 0.294,-0.314C0.315,-0.31 0.333,-0.306 0.347,-0.303C0.389,-0.293 0.422,-0.277 0.445,-0.253C0.468,-0.229 0.48,-0.197 0.48,-0.157Z" style="fill:white;fill-rule:nonzero;"/>
                </g>
                <g transform="matrix(110,0,0,110,-192.769,0)">
                    <path d="M0.546,0L0.455,0L0.455,-0.311C0.455,-0.336 0.453,-0.359 0.45,-0.381C0.447,-0.403 0.442,-0.42 0.434,-0.433C0.426,-0.446 0.414,-0.456 0.399,-0.463C0.384,-0.47 0.364,-0.473 0.339,-0.473C0.314,-0.473 0.288,-0.467 0.261,-0.455C0.233,-0.442 0.207,-0.426 0.182,-0.407L0.182,0L0.09,0L0.09,-0.76L0.182,-0.76L0.182,-0.485C0.211,-0.509 0.24,-0.527 0.271,-0.541C0.302,-0.554 0.333,-0.561 0.365,-0.561C0.424,-0.561 0.469,-0.543 0.5,-0.507C0.531,-0.472 0.546,-0.421 0.546,-0.354L0.546,0Z" style="fill:white;fill-rule:nonzero;"/>
                </g>
                <g transform="matrix(110,0,0,110,-123.159,0)">
                    <path d="M0.431,-0.445L0.426,-0.445C0.412,-0.449 0.399,-0.451 0.386,-0.452C0.373,-0.454 0.358,-0.455 0.34,-0.455C0.312,-0.455 0.285,-0.448 0.258,-0.436C0.232,-0.423 0.207,-0.407 0.182,-0.387L0.182,0L0.09,0L0.09,-0.545L0.182,-0.545L0.182,-0.465C0.219,-0.494 0.251,-0.515 0.279,-0.527C0.306,-0.539 0.335,-0.545 0.364,-0.545C0.38,-0.545 0.391,-0.545 0.398,-0.544C0.406,-0.543 0.416,-0.542 0.431,-0.54L0.431,-0.445Z" style="fill:white;fill-rule:nonzero;"/>
                </g>
                <g transform="matrix(110,0,0,110,-76.2158,0)">
                    <path d="M0.189,-0.637L0.085,-0.637L0.085,-0.732L0.189,-0.732L0.189,-0.637ZM0.183,0L0.091,0L0.091,-0.545L0.183,-0.545L0.183,0Z" style="fill:white;fill-rule:nonzero;"/>
                </g>
                <g transform="matrix(110,0,0,110,-46.0303,0)">
                    <path d="M0.886,0L0.794,0L0.794,-0.311C0.794,-0.334 0.793,-0.357 0.791,-0.378C0.789,-0.4 0.785,-0.418 0.778,-0.431C0.77,-0.445 0.76,-0.455 0.746,-0.462C0.732,-0.47 0.711,-0.473 0.685,-0.473C0.659,-0.473 0.634,-0.467 0.608,-0.454C0.582,-0.441 0.556,-0.425 0.531,-0.405C0.532,-0.397 0.533,-0.389 0.533,-0.379C0.534,-0.369 0.534,-0.359 0.534,-0.349L0.534,0L0.442,0L0.442,-0.311C0.442,-0.335 0.441,-0.358 0.439,-0.379C0.437,-0.401 0.433,-0.418 0.426,-0.431C0.418,-0.445 0.408,-0.456 0.394,-0.463C0.38,-0.47 0.359,-0.473 0.333,-0.473C0.308,-0.473 0.283,-0.467 0.258,-0.455C0.232,-0.442 0.207,-0.426 0.182,-0.407L0.182,0L0.09,0L0.09,-0.545L0.182,-0.545L0.182,-0.485C0.211,-0.509 0.239,-0.527 0.268,-0.541C0.296,-0.554 0.327,-0.561 0.359,-0.561C0.396,-0.561 0.427,-0.553 0.453,-0.537C0.479,-0.521 0.499,-0.5 0.511,-0.472C0.548,-0.503 0.582,-0.526 0.613,-0.54C0.643,-0.554 0.676,-0.561 0.711,-0.561C0.771,-0.561 0.815,-0.542 0.844,-0.506C0.872,-0.47 0.886,-0.419 0.886,-0.354L0.886,0Z" style="fill:white;fill-rule:nonzero;"/>
                </g>
                <g transform="matrix(110,0,0,110,60.9619,0)">
                    <path d="M0.57,-0.279C0.57,-0.235 0.564,-0.195 0.551,-0.158C0.539,-0.121 0.521,-0.09 0.498,-0.065C0.476,-0.041 0.451,-0.022 0.422,-0.009C0.392,0.004 0.362,0.011 0.329,0.011C0.301,0.011 0.275,0.008 0.252,0.001C0.229,-0.005 0.206,-0.014 0.182,-0.027L0.182,0.201L0.09,0.201L0.09,-0.545L0.182,-0.545L0.182,-0.488C0.207,-0.509 0.234,-0.526 0.264,-0.54C0.295,-0.554 0.327,-0.561 0.362,-0.561C0.428,-0.561 0.479,-0.536 0.515,-0.486C0.552,-0.436 0.57,-0.368 0.57,-0.279ZM0.476,-0.277C0.476,-0.343 0.464,-0.392 0.442,-0.424C0.419,-0.457 0.385,-0.473 0.338,-0.473C0.312,-0.473 0.285,-0.467 0.259,-0.456C0.232,-0.445 0.207,-0.43 0.182,-0.411L0.182,-0.102C0.208,-0.09 0.231,-0.082 0.249,-0.078C0.268,-0.074 0.289,-0.072 0.313,-0.072C0.364,-0.072 0.404,-0.089 0.433,-0.124C0.461,-0.158 0.476,-0.209 0.476,-0.277Z" style="fill:white;fill-rule:nonzero;"/>
                </g>
                <g transform="matrix(110,0,0,110,129.497,0)">
                    <path d="M0.286,-0.406L0.169,-0.406L0.169,-0.545L0.286,-0.545L0.286,-0.406ZM0.286,0L0.169,0L0.169,-0.139L0.286,-0.139L0.286,0Z" style="fill:white;fill-rule:nonzero;"/>
                </g>
            </g>
            <g transform="matrix(0.127421,0,0,0.1,46.5087,14)">
                <g transform="matrix(110,0,0,110,-130.464,0)">
                    <path d="M0.547,-0.263L0.145,-0.263C0.145,-0.23 0.15,-0.2 0.16,-0.176C0.17,-0.151 0.184,-0.13 0.202,-0.114C0.219,-0.099 0.239,-0.087 0.262,-0.079C0.285,-0.071 0.311,-0.067 0.339,-0.067C0.376,-0.067 0.413,-0.075 0.451,-0.09C0.489,-0.104 0.515,-0.119 0.531,-0.133L0.536,-0.133L0.536,-0.033C0.505,-0.02 0.474,-0.009 0.441,0C0.409,0.008 0.375,0.013 0.34,0.013C0.249,0.013 0.179,-0.012 0.128,-0.061C0.077,-0.11 0.052,-0.179 0.052,-0.27C0.052,-0.359 0.076,-0.43 0.125,-0.482C0.173,-0.534 0.237,-0.561 0.317,-0.561C0.39,-0.561 0.447,-0.539 0.487,-0.496C0.527,-0.453 0.547,-0.392 0.547,-0.313L0.547,-0.263ZM0.458,-0.333C0.457,-0.382 0.445,-0.419 0.421,-0.445C0.397,-0.472 0.361,-0.485 0.312,-0.485C0.263,-0.485 0.224,-0.47 0.195,-0.441C0.165,-0.412 0.149,-0.376 0.145,-0.333L0.458,-0.333Z" style="fill:white;fill-rule:nonzero;"/>
                </g>
                <g transform="matrix(110,0,0,110,-64.9365,0)">
                    <path d="M0.57,-0.277C0.57,-0.231 0.564,-0.19 0.551,-0.154C0.538,-0.117 0.521,-0.087 0.499,-0.062C0.476,-0.036 0.451,-0.017 0.423,-0.004C0.395,0.009 0.365,0.015 0.332,0.015C0.301,0.015 0.274,0.011 0.25,0.004C0.227,-0.003 0.205,-0.013 0.182,-0.025L0.176,0L0.09,0L0.09,-0.76L0.182,-0.76L0.182,-0.488C0.208,-0.509 0.235,-0.527 0.264,-0.54C0.293,-0.554 0.326,-0.561 0.362,-0.561C0.426,-0.561 0.477,-0.536 0.514,-0.486C0.552,-0.437 0.57,-0.367 0.57,-0.277ZM0.476,-0.274C0.476,-0.34 0.465,-0.389 0.443,-0.423C0.422,-0.456 0.387,-0.473 0.339,-0.473C0.313,-0.473 0.286,-0.467 0.258,-0.456C0.231,-0.444 0.206,-0.429 0.182,-0.411L0.182,-0.099C0.208,-0.087 0.231,-0.079 0.249,-0.074C0.268,-0.07 0.289,-0.067 0.313,-0.067C0.364,-0.067 0.404,-0.084 0.432,-0.117C0.461,-0.151 0.476,-0.203 0.476,-0.274Z" style="fill:white;fill-rule:nonzero;"/>
                </g>
                <g transform="matrix(110,0,0,110,3.59863,0)">
                    <path d="M0.189,-0.637L0.085,-0.637L0.085,-0.732L0.189,-0.732L0.189,-0.637ZM0.183,0L0.091,0L0.091,-0.545L0.183,-0.545L0.183,0Z" style="fill:white;fill-rule:nonzero;"/>
                </g>
            </g>
            <g transform="matrix(0.499467,0,0,0.391982,10.359,2.91969)">
                <g transform="matrix(1,0,0,1,-8.03354,0)">
                    <path d="M4.458,7.429C-0.072,7.749 -0.317,1.918 8.259,2.691C16.835,3.464 26.223,6.091 28.477,4.48C30.266,3.201 29.893,0.872 29.443,0.402C28.993,-0.067 28.311,0.357 28.656,1.084C29,1.812 28.594,3.762 26.394,3.959C24.195,4.156 15.994,2.607 10.819,1.878C5.534,1.136 1.287,1.504 0.364,4.46C-0.555,7.407 2.308,8.333 3.822,8.477C5.336,8.62 4.458,7.429 4.458,7.429Z" style="fill:rgb(190,25,49);fill-rule:nonzero;"/>
                </g>
                <g transform="matrix(1,0,0,1,-8.03354,0)">
                    <path d="M6.083,6.708C1.541,6.708 1.708,0.875 10.208,2.25C18.708,3.625 27.887,6.907 30.25,5.458C32.125,4.308 31.916,1.958 31.5,1.458C31.084,0.958 30.375,1.333 30.667,2.083C30.959,2.833 30.417,4.75 28.209,4.791C26.001,4.834 17.93,2.711 12.819,1.62C7.6,0.506 3.337,0.575 2.208,3.458C1.083,6.333 3.875,7.458 5.375,7.708C6.875,7.958 6.083,6.708 6.083,6.708Z" style="fill:rgb(221,46,68);fill-rule:nonzero;"/>
                </g>
                <g transform="matrix(1,0,0,1,-8.03354,0)">
                    <path d="M33.378,13.246C30.837,9.318 26.613,6.617 22.123,5.762C14.806,4.369 4.812,4.938 2,9C1.438,9.812 1.522,13.671 5,15C6.763,15.674 11.542,14.838 14.841,14.538L14.621,16.275C14.552,16.823 14.939,17.323 15.487,17.393C16.035,17.462 16.535,17.075 16.605,16.527L16.869,14.445C17.665,14.465 18.441,14.545 19.205,14.677L18.606,16.636C18.444,17.164 18.742,17.723 19.269,17.885C19.798,18.046 20.357,17.749 20.518,17.221L21.156,15.133C21.898,15.356 22.635,15.633 23.375,15.959L22.332,17.654C22.042,18.125 22.19,18.74 22.659,19.03C23.131,19.318 23.746,19.172 24.035,18.702L25.175,16.848C25.263,16.895 25.349,16.937 25.437,16.986C28.245,18.544 29.963,22.923 29.891,24.541C29.855,25.353 30.06,25.947 30.499,26.312C31.291,26.964 32.577,26.655 33.517,26.429C33.835,26.352 34.164,26.273 34.316,26.276L34.618,25.284L34.716,24.999C36.697,19.227 35.082,15.878 33.378,13.246Z" style="fill:rgb(221,46,68);fill-rule:nonzero;"/>
                </g>
                <g transform="matrix(1,0,0,1,-8.03354,0)">
                    <path d="M22.193,8.503C21.584,9.647 22.328,9.439 23.218,8.569C23.814,7.986 24.759,7.351 25.759,6.898C25.197,6.655 24.626,6.439 24.045,6.257C23.26,7.013 22.523,7.885 22.193,8.503ZM28.174,11.599C29.445,10.969 31.001,11.384 32.53,12.08C31.846,11.206 31.073,10.41 30.234,9.691C29.517,9.735 28.803,9.951 28.2,10.394C27.195,11.131 25.985,12.682 28.174,11.599ZM32.037,15.507C30.841,15.856 29.173,16.899 31.599,16.631C33.01,16.475 34.33,17.399 35.529,18.578C35.389,17.532 35.107,16.603 34.747,15.758C33.915,15.388 32.956,15.239 32.037,15.507ZM34.477,24.14C34.075,23.935 32.473,25.911 30.791,23.402C30.788,23.397 30.783,23.397 30.78,23.392C30.704,22.22 30.155,17.171 24.892,14.401C24.333,14.107 23.726,13.836 23.055,13.601C22.21,13.305 21.268,13.064 20.228,12.888C19.692,12.797 19.134,12.72 18.542,12.667C18.439,12.658 18.333,12.656 18.229,12.648C17.239,12.577 16.225,12.585 15.204,12.645C14.539,12.684 13.871,12.742 13.206,12.813C9.236,13.236 5.362,14.055 2.715,13.265C3.221,13.971 3.955,14.601 5,15C6.491,15.569 10.137,15.06 13.222,14.708L13.224,14.936C13.229,15.488 13.681,15.932 14.233,15.927C14.785,15.922 15.229,15.471 15.224,14.918L15.22,14.507C15.816,14.459 16.36,14.431 16.809,14.441C17.139,14.448 17.465,14.469 17.789,14.496L17.692,14.902C17.564,15.44 17.897,15.979 18.433,16.106C18.97,16.234 19.509,15.902 19.638,15.365L19.775,14.788C20.563,14.953 21.341,15.174 22.117,15.455L21.852,15.98C21.604,16.474 21.802,17.075 22.293,17.324C22.786,17.573 23.388,17.375 23.638,16.883L23.965,16.235C24.453,16.467 24.942,16.712 25.437,16.987C28.229,18.537 29.943,22.874 29.89,24.513C29.869,24.635 29.858,24.764 29.86,24.9C29.87,25.408 29.748,25.994 29.495,26.643C28.984,27.959 27.957,29.443 26.876,30.422C26.46,30.801 26.158,31.223 25.981,31.676C25.661,32.505 25.814,33.361 26.366,33.807C26.473,33.894 26.59,33.958 26.712,34.004C30.045,30.985 28.783,32.637 29.61,35.121C29.942,35.731 30.432,35.878 30.675,35.91C31.381,36.001 32.078,35.512 32.454,34.661L32.503,34.543C33.067,33.091 34.678,25.886 34.831,24.827C34.873,24.545 34.731,24.269 34.477,24.14Z" style="fill:rgb(190,25,49);fill-rule:nonzero;"/>
                </g>
                <g transform="matrix(1,0,0,1,-8.03354,0)">
                    <path d="M26.714,34.003C27.104,34.15 27.553,34.095 27.958,33.829C28.496,33.476 28.851,33.424 28.991,33.486C29.138,33.55 29.265,33.836 29.33,34.248C29.389,34.615 29.49,34.897 29.612,35.12C28.784,32.636 31.559,28.389 26.714,34.003Z" style="fill:rgb(41,47,51);fill-rule:nonzero;"/>
                </g>
                <g transform="matrix(1,0,0,1,-8.03354,0)">
                    <circle cx="7" cy="9" r="1" style="fill:rgb(41,47,51);"/>
                </g>
            </g>
        </g>
    </g>
</svg>
