<?xml version="1.0" encoding="UTF-8" standalone="no"?>
<!DOCTYPE svg PUBLIC "-//W3C//DTD SVG 1.1//EN" "http://www.w3.org/Graphics/SVG/1.1/DTD/svg11.dtd">
<svg width="100%" height="100%" viewBox="0 0 147 20" version="1.1" xmlns="http://www.w3.org/2000/svg" xmlns:xlink="http://www.w3.org/1999/xlink" xml:space="preserve" xmlns:serif="http://www.serif.com/" style="fill-rule:evenodd;clip-rule:evenodd;stroke-linejoin:round;stroke-miterlimit:2;">
    <rect id="straight_shrimp" x="0" y="0" width="147.5" height="20" style="fill:none;"/>
    <rect x="0" y="0" width="147.5" height="20" style="fill:#555;"/>
    <rect x="43.9" y="0" width="103.6" height="20" style="fill:#97ca00;"/>
    <path d="M29.469,11.105L25.049,11.105C25.049,11.474 25.104,11.795 25.215,12.069C25.326,12.343 25.479,12.568 25.672,12.743C25.858,12.915 26.079,13.044 26.335,13.13C26.591,13.216 26.873,13.259 27.181,13.259C27.589,13.259 28,13.177 28.414,13.014C28.827,12.851 29.122,12.691 29.297,12.534L29.351,12.534L29.351,13.635C29.011,13.778 28.664,13.898 28.309,13.995C27.955,14.091 27.582,14.14 27.192,14.14C26.196,14.14 25.419,13.87 24.861,13.331C24.302,12.792 24.023,12.027 24.023,11.035C24.023,10.054 24.291,9.275 24.826,8.699C25.361,8.122 26.066,7.834 26.939,7.834C27.749,7.834 28.373,8.07 28.811,8.543C29.25,9.016 29.469,9.687 29.469,10.557L29.469,11.105ZM28.486,10.332C28.483,9.802 28.349,9.392 28.086,9.102C27.823,8.812 27.423,8.667 26.886,8.667C26.345,8.667 25.914,8.826 25.594,9.145C25.274,9.463 25.092,9.859 25.049,10.332L28.486,10.332Z" style="fill:#fff;fill-rule:nonzero;"/>
    <path d="M36.28,10.955C36.28,11.456 36.209,11.907 36.068,12.308C35.926,12.709 35.736,13.046 35.496,13.318C35.241,13.601 34.962,13.813 34.658,13.954C34.353,14.096 34.019,14.167 33.653,14.167C33.313,14.167 33.016,14.126 32.762,14.046C32.507,13.965 32.257,13.857 32.01,13.721L31.945,14L31,14L31,5.643L32.01,5.643L32.01,8.629C32.293,8.396 32.593,8.205 32.912,8.057C33.231,7.908 33.589,7.834 33.986,7.834C34.695,7.834 35.255,8.106 35.665,8.65C36.075,9.195 36.28,9.963 36.28,10.955ZM35.238,10.981C35.238,10.265 35.12,9.722 34.883,9.351C34.647,8.981 34.266,8.795 33.739,8.795C33.446,8.795 33.148,8.859 32.848,8.986C32.547,9.113 32.268,9.277 32.01,9.478L32.01,12.915C32.296,13.044 32.542,13.133 32.748,13.184C32.954,13.234 33.188,13.259 33.449,13.259C34.008,13.259 34.446,13.075 34.762,12.708C35.079,12.341 35.238,11.766 35.238,10.981Z" style="fill:#fff;fill-rule:nonzero;"/>
    <path d="M38.938,6.996L37.8,6.996L37.8,5.949L38.938,5.949L38.938,6.996ZM38.874,14L37.864,14L37.864,8L38.874,8L38.874,14Z" style="fill:#fff;fill-rule:nonzero;"/>
    <path d="M50.184,9.531L48.9,9.531L48.9,8L50.184,8L50.184,9.531ZM50.184,14L48.9,14L48.9,12.469L50.184,12.469L50.184,14Z" style="fill:#fff;fill-rule:nonzero;"/>
    <path d="M57.317,12.271C57.317,12.818 57.09,13.268 56.637,13.619C56.184,13.97 55.566,14.145 54.781,14.145C54.337,14.145 53.93,14.092 53.559,13.987C53.189,13.881 52.878,13.765 52.628,13.64L52.628,12.507L52.681,12.507C53,12.747 53.354,12.937 53.745,13.079C54.135,13.22 54.509,13.291 54.867,13.291C55.311,13.291 55.659,13.219 55.909,13.076C56.16,12.933 56.285,12.707 56.285,12.399C56.285,12.163 56.217,11.984 56.081,11.862C55.945,11.741 55.684,11.637 55.297,11.551C55.154,11.519 54.967,11.481 54.736,11.438C54.505,11.395 54.294,11.348 54.105,11.298C53.578,11.159 53.205,10.954 52.985,10.683C52.765,10.413 52.654,10.081 52.654,9.687C52.654,9.44 52.705,9.207 52.807,8.989C52.91,8.77 53.064,8.575 53.272,8.403C53.473,8.235 53.728,8.102 54.037,8.003C54.347,7.905 54.694,7.855 55.077,7.855C55.435,7.855 55.797,7.899 56.164,7.987C56.531,8.075 56.837,8.181 57.08,8.307L57.08,9.386L57.026,9.386C56.769,9.196 56.455,9.036 56.087,8.906C55.718,8.775 55.356,8.709 55.002,8.709C54.633,8.709 54.321,8.78 54.067,8.922C53.813,9.063 53.686,9.273 53.686,9.553C53.686,9.8 53.763,9.986 53.917,10.111C54.067,10.237 54.31,10.339 54.647,10.417C54.833,10.46 55.042,10.503 55.273,10.546C55.504,10.589 55.696,10.629 55.85,10.665C56.319,10.772 56.681,10.956 56.935,11.218C57.189,11.483 57.317,11.834 57.317,12.271Z" style="fill:#fff;fill-rule:nonzero;"/>
    <path d="M61.877,13.946C61.687,13.996 61.48,14.038 61.256,14.07C61.032,14.102 60.833,14.118 60.657,14.118C60.045,14.118 59.58,13.953 59.261,13.624C58.942,13.295 58.783,12.766 58.783,12.04L58.783,8.849L58.101,8.849L58.101,8L58.783,8L58.783,6.276L59.793,6.276L59.793,8L61.877,8L61.877,8.849L59.793,8.849L59.793,11.583C59.793,11.898 59.8,12.144 59.814,12.322C59.828,12.499 59.879,12.664 59.964,12.818C60.043,12.962 60.152,13.066 60.289,13.133C60.427,13.199 60.638,13.232 60.921,13.232C61.085,13.232 61.257,13.208 61.436,13.159C61.615,13.111 61.744,13.071 61.823,13.039L61.877,13.039L61.877,13.946Z" style="fill:#fff;fill-rule:nonzero;"/>
    <path d="M66.839,9.102L66.786,9.102C66.635,9.066 66.489,9.04 66.348,9.024C66.207,9.008 66.039,9 65.846,9C65.534,9 65.233,9.068 64.943,9.206C64.653,9.344 64.374,9.522 64.106,9.741L64.106,14L63.096,14L63.096,8L64.106,8L64.106,8.887C64.507,8.564 64.86,8.336 65.166,8.202C65.473,8.068 65.785,8 66.104,8C66.279,8 66.406,8.005 66.485,8.014C66.564,8.023 66.682,8.04 66.839,8.065L66.839,9.102Z" style="fill:#fff;fill-rule:nonzero;"/>
    <path d="M72.259,14L71.254,14L71.254,13.361C71.165,13.422 71.044,13.507 70.892,13.616C70.74,13.725 70.592,13.812 70.449,13.876C70.281,13.959 70.087,14.028 69.869,14.083C69.65,14.139 69.394,14.167 69.101,14.167C68.56,14.167 68.102,13.987 67.726,13.629C67.35,13.271 67.162,12.815 67.162,12.26C67.162,11.805 67.259,11.437 67.454,11.156C67.65,10.875 67.928,10.654 68.29,10.493C68.655,10.332 69.094,10.222 69.606,10.165C70.118,10.108 70.667,10.065 71.254,10.036L71.254,9.88C71.254,9.651 71.214,9.461 71.134,9.311C71.053,9.161 70.938,9.042 70.787,8.957C70.644,8.874 70.472,8.819 70.272,8.79C70.071,8.761 69.862,8.747 69.643,8.747C69.378,8.747 69.083,8.782 68.757,8.852C68.431,8.922 68.094,9.023 67.747,9.155L67.693,9.155L67.693,8.129C67.89,8.076 68.175,8.017 68.547,7.952C68.92,7.888 69.287,7.855 69.649,7.855C70.071,7.855 70.439,7.89 70.752,7.96C71.066,8.03 71.337,8.149 71.566,8.317C71.792,8.482 71.963,8.695 72.082,8.957C72.2,9.218 72.259,9.542 72.259,9.929L72.259,14ZM71.254,12.523L71.254,10.853C70.947,10.87 70.584,10.897 70.167,10.933C69.75,10.969 69.419,11.021 69.176,11.089C68.886,11.171 68.651,11.299 68.472,11.473C68.293,11.647 68.204,11.886 68.204,12.19C68.204,12.534 68.308,12.792 68.515,12.966C68.723,13.14 69.04,13.227 69.466,13.227C69.82,13.227 70.144,13.158 70.438,13.02C70.732,12.882 71.004,12.716 71.254,12.523Z" style="fill:#fff;fill-rule:nonzero;"/>
    <path d="M75.288,6.996L74.15,6.996L74.15,5.949L75.288,5.949L75.288,6.996ZM75.224,14L74.214,14L74.214,8L75.224,8L75.224,14Z" style="fill:#fff;fill-rule:nonzero;"/>
    <path d="M82.088,13.318C82.088,14.335 81.857,15.081 81.395,15.558C80.933,16.034 80.222,16.272 79.263,16.272C78.944,16.272 78.633,16.25 78.331,16.205C78.028,16.16 77.73,16.097 77.437,16.014L77.437,14.983L77.49,14.983C77.655,15.047 77.916,15.127 78.275,15.222C78.633,15.317 78.991,15.364 79.349,15.364C79.692,15.364 79.977,15.323 80.203,15.241C80.428,15.158 80.604,15.044 80.729,14.897C80.854,14.757 80.944,14.589 80.998,14.392C81.051,14.195 81.078,13.975 81.078,13.731L81.078,13.184C80.774,13.427 80.483,13.609 80.205,13.729C79.928,13.849 79.574,13.909 79.145,13.909C78.428,13.909 77.86,13.65 77.439,13.133C77.019,12.615 76.808,11.886 76.808,10.944C76.808,10.428 76.881,9.983 77.026,9.609C77.171,9.235 77.369,8.912 77.619,8.64C77.852,8.385 78.135,8.188 78.468,8.046C78.801,7.905 79.132,7.834 79.462,7.834C79.809,7.834 80.1,7.869 80.334,7.939C80.569,8.009 80.817,8.115 81.078,8.258L81.143,8L82.088,8L82.088,13.318ZM81.078,12.351L81.078,9.08C80.81,8.958 80.56,8.872 80.329,8.82C80.098,8.768 79.868,8.742 79.639,8.742C79.084,8.742 78.647,8.928 78.328,9.3C78.01,9.673 77.85,10.213 77.85,10.922C77.85,11.596 77.968,12.106 78.205,12.453C78.441,12.8 78.833,12.974 79.381,12.974C79.675,12.974 79.969,12.918 80.265,12.805C80.56,12.692 80.831,12.541 81.078,12.351Z" style="fill:#fff;fill-rule:nonzero;"/>
    <path d="M89.092,14L88.082,14L88.082,10.584C88.082,10.308 88.066,10.05 88.034,9.808C88.002,9.566 87.942,9.377 87.857,9.241C87.767,9.091 87.638,8.979 87.47,8.906C87.302,8.832 87.083,8.795 86.815,8.795C86.539,8.795 86.251,8.863 85.95,9C85.649,9.136 85.361,9.309 85.085,9.521L85.085,14L84.075,14L84.075,5.643L85.085,5.643L85.085,8.667C85.4,8.405 85.726,8.201 86.063,8.054C86.399,7.907 86.745,7.834 87.099,7.834C87.747,7.834 88.241,8.029 88.582,8.419C88.922,8.81 89.092,9.372 89.092,10.106L89.092,14Z" style="fill:#fff;fill-rule:nonzero;"/>
    <path d="M94.151,13.946C93.962,13.996 93.755,14.038 93.531,14.07C93.307,14.102 93.108,14.118 92.932,14.118C92.32,14.118 91.854,13.953 91.536,13.624C91.217,13.295 91.058,12.766 91.058,12.04L91.058,8.849L90.376,8.849L90.376,8L91.058,8L91.058,6.276L92.067,6.276L92.067,8L94.151,8L94.151,8.849L92.067,8.849L92.067,11.583C92.067,11.898 92.075,12.144 92.089,12.322C92.103,12.499 92.153,12.664 92.239,12.818C92.318,12.962 92.426,13.066 92.564,13.133C92.702,13.199 92.913,13.232 93.195,13.232C93.36,13.232 93.532,13.208 93.711,13.159C93.89,13.111 94.019,13.071 94.098,13.039L94.151,13.039L94.151,13.946Z" style="fill:#fff;fill-rule:nonzero;"/>
    <rect x="94.356" y="14.967" width="7.036" height="0.645" style="fill:#fff;fill-rule:nonzero;"/>
    <path d="M106.65,12.271C106.65,12.818 106.424,13.268 105.971,13.619C105.518,13.97 104.899,14.145 104.115,14.145C103.671,14.145 103.264,14.092 102.893,13.987C102.522,13.881 102.212,13.765 101.961,13.64L101.961,12.507L102.015,12.507C102.333,12.747 102.688,12.937 103.078,13.079C103.469,13.22 103.843,13.291 104.201,13.291C104.645,13.291 104.992,13.219 105.243,13.076C105.493,12.933 105.619,12.707 105.619,12.399C105.619,12.163 105.551,11.984 105.415,11.862C105.279,11.741 105.017,11.637 104.63,11.551C104.487,11.519 104.3,11.481 104.069,11.438C103.838,11.395 103.628,11.348 103.438,11.298C102.912,11.159 102.538,10.954 102.318,10.683C102.098,10.413 101.988,10.081 101.988,9.687C101.988,9.44 102.039,9.207 102.141,8.989C102.243,8.77 102.398,8.575 102.606,8.403C102.806,8.235 103.061,8.102 103.371,8.003C103.681,7.905 104.027,7.855 104.41,7.855C104.768,7.855 105.131,7.899 105.498,7.987C105.865,8.075 106.17,8.181 106.414,8.307L106.414,9.386L106.36,9.386C106.102,9.196 105.789,9.036 105.42,8.906C105.051,8.775 104.69,8.709 104.335,8.709C103.966,8.709 103.655,8.78 103.4,8.922C103.146,9.063 103.019,9.273 103.019,9.553C103.019,9.8 103.096,9.986 103.25,10.111C103.4,10.237 103.644,10.339 103.981,10.417C104.167,10.46 104.375,10.503 104.606,10.546C104.837,10.589 105.03,10.629 105.184,10.665C105.653,10.772 106.014,10.956 106.269,11.218C106.523,11.483 106.65,11.834 106.65,12.271Z" style="fill:#fff;fill-rule:nonzero;"/>
    <path d="M113.111,14L112.102,14L112.102,10.584C112.102,10.308 112.086,10.05 112.053,9.808C112.021,9.566 111.962,9.377 111.876,9.241C111.787,9.091 111.658,8.979 111.489,8.906C111.321,8.832 111.103,8.795 110.834,8.795C110.558,8.795 110.27,8.863 109.969,9C109.669,9.136 109.38,9.309 109.105,9.521L109.105,14L108.095,14L108.095,5.643L109.105,5.643L109.105,8.667C109.42,8.405 109.746,8.201 110.082,8.054C110.419,7.907 110.764,7.834 111.119,7.834C111.767,7.834 112.261,8.029 112.601,8.419C112.941,8.81 113.111,9.372 113.111,10.106L113.111,14Z" style="fill:#fff;fill-rule:nonzero;"/>
    <path d="M118.799,9.102L118.746,9.102C118.595,9.066 118.449,9.04 118.308,9.024C118.167,9.008 117.999,9 117.806,9C117.494,9 117.193,9.068 116.903,9.206C116.613,9.344 116.334,9.522 116.066,9.741L116.066,14L115.056,14L115.056,8L116.066,8L116.066,8.887C116.467,8.564 116.82,8.336 117.126,8.202C117.432,8.068 117.745,8 118.064,8C118.239,8 118.366,8.005 118.445,8.014C118.524,8.023 118.642,8.04 118.799,8.065L118.799,9.102Z" style="fill:#fff;fill-rule:nonzero;"/>
    <path d="M120.835,6.996L119.696,6.996L119.696,5.949L120.835,5.949L120.835,6.996ZM120.771,14L119.761,14L119.761,8L120.771,8L120.771,14Z" style="fill:#fff;fill-rule:nonzero;"/>
    <path d="M131.524,14L130.514,14L130.514,10.584C130.514,10.326 130.502,10.077 130.479,9.837C130.456,9.597 130.406,9.406 130.331,9.263C130.249,9.109 130.131,8.992 129.977,8.914C129.823,8.835 129.601,8.795 129.311,8.795C129.028,8.795 128.745,8.866 128.462,9.008C128.179,9.149 127.896,9.329 127.613,9.547C127.624,9.63 127.633,9.726 127.64,9.835C127.647,9.944 127.651,10.052 127.651,10.16L127.651,14L126.641,14L126.641,10.584C126.641,10.319 126.63,10.067 126.606,9.829C126.583,9.591 126.534,9.401 126.459,9.257C126.376,9.103 126.258,8.988 126.104,8.911C125.95,8.834 125.728,8.795 125.438,8.795C125.162,8.795 124.886,8.863 124.608,9C124.331,9.136 124.054,9.309 123.778,9.521L123.778,14L122.769,14L122.769,8L123.778,8L123.778,8.667C124.094,8.405 124.408,8.201 124.721,8.054C125.034,7.907 125.368,7.834 125.723,7.834C126.131,7.834 126.477,7.92 126.762,8.092C127.047,8.264 127.259,8.502 127.399,8.806C127.807,8.462 128.179,8.214 128.516,8.062C128.852,7.91 129.212,7.834 129.595,7.834C130.254,7.834 130.74,8.034 131.054,8.433C131.367,8.832 131.524,9.39 131.524,10.106L131.524,14Z" style="fill:#fff;fill-rule:nonzero;"/>
    <path d="M138.748,10.928C138.748,11.415 138.678,11.86 138.538,12.262C138.399,12.665 138.202,13.006 137.947,13.286C137.711,13.551 137.433,13.756 137.112,13.901C136.792,14.046 136.452,14.118 136.094,14.118C135.783,14.118 135.501,14.084 135.248,14.016C134.996,13.948 134.739,13.842 134.478,13.699L134.478,16.213L133.468,16.213L133.468,8L134.478,8L134.478,8.629C134.746,8.403 135.048,8.214 135.383,8.062C135.717,7.91 136.075,7.834 136.454,7.834C137.178,7.834 137.741,8.107 138.143,8.653C138.546,9.199 138.748,9.957 138.748,10.928ZM137.706,10.955C137.706,10.231 137.582,9.691 137.335,9.333C137.088,8.974 136.708,8.795 136.196,8.795C135.906,8.795 135.615,8.858 135.321,8.983C135.027,9.109 134.746,9.273 134.478,9.478L134.478,12.877C134.764,13.006 135.01,13.094 135.216,13.141C135.422,13.187 135.656,13.21 135.917,13.21C136.479,13.21 136.918,13.021 137.233,12.641C137.548,12.262 137.706,11.699 137.706,10.955Z" style="fill:#fff;fill-rule:nonzero;"/>
    <path d="M142.47,9.531L141.186,9.531L141.186,8L142.47,8L142.47,9.531ZM142.47,14L141.186,14L141.186,12.469L142.47,12.469L142.47,14Z" style="fill:#fff;fill-rule:nonzero;"/>
    <g>
        <path d="M7.122,2.982C8.043,2.991 9.164,3.807 10.32,4.976C11.813,6.488 14.083,9.01 14.842,9.488C15.062,9.627 15.269,9.681 15.454,9.68L15.469,9.68C15.917,9.671 16.234,9.342 16.282,9.117C16.316,8.957 16.414,8.884 16.507,8.885L16.516,8.885C16.606,8.89 16.69,8.963 16.705,9.09C16.733,9.347 16.302,10.159 15.449,10.171L15.429,10.171C15.415,10.171 15.401,10.171 15.387,10.17C14.261,10.136 11.874,6.972 9.292,4.608C8.404,3.795 7.661,3.492 7.132,3.485L7.114,3.485C6.117,3.484 5.889,4.542 6.895,5.203C6.895,5.203 6.89,5.527 6.707,5.533L6.702,5.534C6.636,5.533 6.549,5.493 6.431,5.385C5.978,4.965 5.28,3.96 6.304,3.234C6.549,3.06 6.818,2.981 7.107,2.981L7.122,2.982Z" style="fill:#be1931;fill-rule:nonzero;"/>
        <path d="M7.598,5.37C6.13,4.251 7.622,2.406 10.031,4.946C12.44,7.486 14.598,10.81 15.719,10.924C16.609,11.014 17.12,10.203 17.109,9.939C17.098,9.674 16.776,9.621 16.686,9.935C16.595,10.25 15.948,10.736 15.224,10.205C14.499,9.674 12.414,6.999 11.03,5.386C9.618,3.739 8.223,2.711 7.147,3.365C6.075,4.017 6.7,5.069 7.123,5.519C7.546,5.97 7.598,5.37 7.598,5.37Z" style="fill:#dd2e44;fill-rule:nonzero;"/>
        <g>
            <path d="M9.017,10.331L8.418,10.939C8.26,11.099 8.003,11.101 7.843,10.943C7.808,10.909 7.781,10.87 7.761,10.828L7.759,10.823C7.742,10.786 7.731,10.748 7.726,10.708C7.712,10.608 7.736,10.504 7.797,10.419C7.809,10.401 7.823,10.384 7.839,10.368L8.338,9.861L9.017,10.331Z" style="fill:#dd2e44;fill-rule:nonzero;"/>
            <path d="M9.087,11.543C9.097,11.513 9.112,11.483 9.13,11.456L9.583,10.757L10.295,11.154L9.812,11.898C9.734,12.017 9.605,12.083 9.473,12.083L9.468,12.083C9.393,12.083 9.317,12.062 9.249,12.018C9.091,11.915 9.028,11.719 9.085,11.548L9.087,11.543Z" style="fill:#dd2e44;fill-rule:nonzero;"/>
            <path d="M11.557,12.116L11.092,12.868C11.052,12.934 10.996,12.983 10.932,13.016C10.877,13.045 10.815,13.06 10.753,13.061L10.748,13.061C10.719,13.061 10.69,13.058 10.661,13.052C10.617,13.043 10.573,13.026 10.532,13.001C10.342,12.883 10.282,12.632 10.4,12.441L10.825,11.753L11.557,12.116Z" style="fill:#dd2e44;fill-rule:nonzero;"/>
        </g>
        <g>
            <path d="M7.982,10.461C7.912,10.444 7.846,10.409 7.791,10.355C7.631,10.197 7.629,9.94 7.786,9.78L8.286,9.273L8.964,9.742L8.365,10.35C8.287,10.43 8.183,10.471 8.079,10.472L8.074,10.472C8.043,10.471 8.012,10.468 7.982,10.461Z" style="fill:#be1931;fill-rule:nonzero;"/>
            <path d="M10.242,10.565L9.759,11.31C9.682,11.429 9.553,11.494 9.42,11.495L9.415,11.495C9.34,11.495 9.264,11.473 9.196,11.429C9.009,11.307 8.955,11.055 9.077,10.867L9.531,10.169L10.242,10.565Z" style="fill:#be1931;fill-rule:nonzero;"/>
            <path d="M11.504,11.527L11.039,12.28C10.971,12.39 10.859,12.457 10.739,12.47C10.726,12.472 10.713,12.472 10.7,12.473L10.695,12.473C10.622,12.473 10.547,12.454 10.48,12.412C10.43,12.382 10.39,12.342 10.359,12.297C10.27,12.169 10.26,11.994 10.348,11.853L10.773,11.164L11.504,11.527Z" style="fill:#be1931;fill-rule:nonzero;"/>
        </g>
        <path d="M6.132,4.919C8.482,4.943 15.907,10.957 15.967,12.695C15.995,13.502 15.334,13.866 14.525,13.876L14.495,13.877C14.034,13.878 13.527,13.765 13.073,13.556C11.751,12.946 5.718,8.292 5.314,7.64C4.518,6.353 5.442,5.085 5.823,4.961C5.909,4.933 6.008,4.919 6.118,4.919L6.132,4.919Z" style="fill:#dd2e44;"/>
        <clipPath id="_clip1">
            <path d="M6.132,4.919C8.482,4.943 15.907,10.957 15.967,12.695C15.995,13.502 15.334,13.866 14.525,13.876L14.495,13.877C14.034,13.878 13.527,13.765 13.073,13.556C11.751,12.946 5.718,8.292 5.314,7.64C4.518,6.353 5.442,5.085 5.823,4.961C5.909,4.933 6.008,4.919 6.118,4.919L6.132,4.919Z"/>
        </clipPath>
        <g clip-path="url(#_clip1)">
            <g>
                <path d="M15.014,10.987C15.06,10.987 15.107,10.989 15.153,10.992C15.242,11.087 15.328,11.187 15.411,11.294C15.566,11.49 15.71,11.708 15.838,11.953L15.843,11.962C15.639,11.868 15.434,11.788 15.232,11.73C15.033,11.673 14.836,11.638 14.647,11.637L14.64,11.637C14.44,11.637 14.249,11.675 14.071,11.762C13.854,11.869 13.719,11.913 13.645,11.913C13.417,11.913 13.774,11.498 14.083,11.272C14.357,11.071 14.688,10.988 15.014,10.987Z" style="fill:#be1931;fill-rule:nonzero;"/>
                <path d="M13.051,10.618C12.835,10.727 12.7,10.772 12.627,10.773L12.625,10.773C12.4,10.774 12.751,10.357 13.057,10.128C13.3,9.945 13.59,9.855 13.881,9.834L13.889,9.841C14.23,10.128 14.545,10.447 14.824,10.796C14.424,10.619 14.02,10.488 13.646,10.486L13.639,10.486C13.432,10.486 13.234,10.525 13.051,10.618Z" style="fill:#be1931;fill-rule:nonzero;"/>
                <path d="M12.918,8.922C13.007,9.005 13.094,9.091 13.179,9.179C13.193,9.194 13.208,9.209 13.222,9.224C13.264,9.269 13.306,9.314 13.347,9.359C13.374,9.389 13.4,9.419 13.427,9.449C12.98,9.441 12.523,9.509 12.202,9.619C12.028,9.679 11.877,9.709 11.774,9.71C11.722,9.71 11.683,9.702 11.66,9.685L11.651,9.678C11.647,9.674 11.644,9.669 11.642,9.664L11.639,9.655C11.628,9.608 11.685,9.529 11.837,9.416C12.066,9.247 12.489,9.055 12.909,8.914L12.918,8.922Z" style="fill:#be1931;fill-rule:nonzero;"/>
            </g>
            <path d="M5.011,6.527C5.717,7.463 13.226,13.592 14.688,13.585L14.696,13.585C14.708,13.585 14.719,13.584 14.729,13.583L14.73,13.586C14.739,13.624 14.827,14.036 14.337,14.047L14.319,14.047C14.077,14.047 13.698,13.952 13.111,13.674C10.978,12.666 5.656,8.191 5.314,7.64C5.075,7.253 4.993,6.869 5.003,6.516L5.011,6.527Z" style="fill:#be1931;fill-rule:nonzero;"/>
            <path d="M7.442,5.787C7.527,5.787 7.613,5.814 7.686,5.87C7.865,6.006 7.899,6.261 7.763,6.44C7.684,6.543 7.564,6.599 7.443,6.6L7.441,6.6C7.354,6.6 7.267,6.573 7.193,6.516C7.015,6.38 6.981,6.125 7.117,5.947C7.196,5.842 7.317,5.787 7.439,5.787L7.442,5.787Z" style="fill:#292f33;"/>
        </g>
        <g>
            <path d="M17.533,16.899C17.654,16.795 17.718,16.635 17.704,16.45C17.684,16.205 17.732,16.076 17.778,16.041C17.827,16.003 17.946,16.013 18.096,16.067C18.23,16.115 18.343,16.133 18.44,16.133C17.456,15.954 16.542,14.243 17.533,16.899Z" style="fill:#292f33;fill-rule:nonzero;"/>
            <path d="M15.655,12.484C15.744,12.422 15.863,12.425 15.95,12.491C16.277,12.737 18.396,14.602 18.778,15.058L18.809,15.096C19.025,15.379 19.061,15.702 18.901,15.922C18.845,15.998 18.706,16.135 18.44,16.134C17.456,15.954 17.134,15.228 17.533,16.9C17.495,16.932 17.452,16.96 17.403,16.98C17.152,17.083 16.837,16.977 16.618,16.717C16.499,16.574 16.413,16.395 16.363,16.186C16.233,15.644 15.925,15.027 15.577,14.614C15.406,14.41 15.232,14.261 15.06,14.171C15.014,14.147 14.973,14.119 14.936,14.09C14.287,13.706 12.571,13.776 14.729,13.583C15.88,13.481 15.512,12.581 15.655,12.484Z" style="fill:#be1931;fill-rule:nonzero;"/>
        </g>
    </g>
</svg>
