<?xml version="1.0" encoding="UTF-8" standalone="no"?>
<!DOCTYPE svg PUBLIC "-//W3C//DTD SVG 1.1//EN" "http://www.w3.org/Graphics/SVG/1.1/DTD/svg11.dtd">
<svg width="100%" height="100%" viewBox="0 0 101 20" version="1.1" xmlns="http://www.w3.org/2000/svg" xmlns:xlink="http://www.w3.org/1999/xlink" xml:space="preserve" xmlns:serif="http://www.serif.com/" style="fill-rule:evenodd;clip-rule:evenodd;stroke-linejoin:round;stroke-miterlimit:2;">
    <g id="shrimp" transform="matrix(0.716312,0,0,1,0,0)">
        <rect x="0" y="0" width="141" height="20" style="fill:none;"/>
        <g transform="matrix(1.39604,0,0,1,0,0)">
            <rect x="0" y="0" width="44" height="20" style="fill:rgb(85,85,85);fill-rule:nonzero;"/>
            <g transform="matrix(0.587629,0,0,1,18.1443,0)">
                <rect x="44" y="0" width="97" height="20" style="fill:rgb(68,204,17);fill-rule:nonzero;"/>
            </g>
        </g>
        <g transform="matrix(1.39604,0,0,1,0,0)" font-family="Verdana,Geneva,DejaVu Sans,sans-serif" font-size="110px" fill="white">
            <g transform="matrix(0.1,0,0,0.1,31.5,14)">
                <text x="-82.124px" y="0px">ebi</text>
            </g>
            <g transform="matrix(0.1,0,0,0.1,91.5,14)">
                <text x="-439.543px" y="0px">:shrimp:</text>
            </g>
        </g>
        <g id="_1f990" serif:id="1f990" transform="matrix(0.542904,0,0,0.388889,16.7525,10)">
            <g transform="matrix(1,0,0,1,-18,-18)">
                <path d="M4.458,7.429C-0.072,7.749 -0.317,1.918 8.259,2.691C16.835,3.464 26.223,6.091 28.477,4.48C30.266,3.201 29.893,0.872 29.443,0.402C28.993,-0.067 28.311,0.357 28.656,1.084C29,1.812 28.594,3.762 26.394,3.959C24.195,4.156 15.994,2.607 10.819,1.878C5.534,1.136 1.287,1.504 0.364,4.46C-0.555,7.407 2.308,8.333 3.822,8.477C5.336,8.62 4.458,7.429 4.458,7.429Z" style="fill:rgb(190,25,49);fill-rule:nonzero;"/>
                <path d="M6.083,6.708C1.541,6.708 1.708,0.875 10.208,2.25C18.708,3.625 27.887,6.907 30.25,5.458C32.125,4.308 31.916,1.958 31.5,1.458C31.084,0.958 30.375,1.333 30.667,2.083C30.959,2.833 30.417,4.75 28.209,4.791C26.001,4.834 17.93,2.711 12.819,1.62C7.6,0.506 3.337,0.575 2.208,3.458C1.083,6.333 3.875,7.458 5.375,7.708C6.875,7.958 6.083,6.708 6.083,6.708Z" style="fill:rgb(221,46,68);fill-rule:nonzero;"/>
                <path d="M33.378,13.246C30.837,9.318 26.613,6.617 22.123,5.762C14.806,4.369 4.812,4.938 2,9C1.438,9.812 1.522,13.671 5,15C6.763,15.674 11.542,14.838 14.841,14.538L14.621,16.275C14.552,16.823 14.939,17.323 15.487,17.393C16.035,17.462 16.535,17.075 16.605,16.527L16.869,14.445C17.665,14.465 18.441,14.545 19.205,14.677L18.606,16.636C18.444,17.164 18.742,17.723 19.269,17.885C19.798,18.046 20.357,17.749 20.518,17.221L21.156,15.133C21.898,15.356 22.635,15.633 23.375,15.959L22.332,17.654C22.042,18.125 22.19,18.74 22.659,19.03C23.131,19.318 23.746,19.172 24.035,18.702L25.175,16.848C25.263,16.895 25.349,16.937 25.437,16.986C28.245,18.544 29.963,22.923 29.891,24.541C29.855,25.353 30.06,25.947 30.499,26.312C31.291,26.964 32.577,26.655 33.517,26.429C33.835,26.352 34.164,26.273 34.316,26.276L34.618,25.284L34.716,24.999C36.697,19.227 35.082,15.878 33.378,13.246Z" style="fill:rgb(221,46,68);fill-rule:nonzero;"/>
                <path d="M22.193,8.503C21.584,9.647 22.328,9.439 23.218,8.569C23.814,7.986 24.759,7.351 25.759,6.898C25.197,6.655 24.626,6.439 24.045,6.257C23.26,7.013 22.523,7.885 22.193,8.503ZM28.174,11.599C29.445,10.969 31.001,11.384 32.53,12.08C31.846,11.206 31.073,10.41 30.234,9.691C29.517,9.735 28.803,9.951 28.2,10.394C27.195,11.131 25.985,12.682 28.174,11.599ZM32.037,15.507C30.841,15.856 29.173,16.899 31.599,16.631C33.01,16.475 34.33,17.399 35.529,18.578C35.389,17.532 35.107,16.603 34.747,15.758C33.915,15.388 32.956,15.239 32.037,15.507ZM34.477,24.14C34.075,23.935 32.473,25.911 30.791,23.402C30.788,23.397 30.783,23.397 30.78,23.392C30.704,22.22 30.155,17.171 24.892,14.401C24.333,14.107 23.726,13.836 23.055,13.601C22.21,13.305 21.268,13.064 20.228,12.888C19.692,12.797 19.134,12.72 18.542,12.667C18.439,12.658 18.333,12.656 18.229,12.648C17.239,12.577 16.225,12.585 15.204,12.645C14.539,12.684 13.871,12.742 13.206,12.813C9.236,13.236 5.362,14.055 2.715,13.265C3.221,13.971 3.955,14.601 5,15C6.491,15.569 10.137,15.06 13.222,14.708L13.224,14.936C13.229,15.488 13.681,15.932 14.233,15.927C14.785,15.922 15.229,15.471 15.224,14.918L15.22,14.507C15.816,14.459 16.36,14.431 16.809,14.441C17.139,14.448 17.465,14.469 17.789,14.496L17.692,14.902C17.564,15.44 17.897,15.979 18.433,16.106C18.97,16.234 19.509,15.902 19.638,15.365L19.775,14.788C20.563,14.953 21.341,15.174 22.117,15.455L21.852,15.98C21.604,16.474 21.802,17.075 22.293,17.324C22.786,17.573 23.388,17.375 23.638,16.883L23.965,16.235C24.453,16.467 24.942,16.712 25.437,16.987C28.229,18.537 29.943,22.874 29.89,24.513C29.869,24.635 29.858,24.764 29.86,24.9C29.87,25.408 29.748,25.994 29.495,26.643C28.984,27.959 27.957,29.443 26.876,30.422C26.46,30.801 26.158,31.223 25.981,31.676C25.661,32.505 25.814,33.361 26.366,33.807C26.473,33.894 26.59,33.958 26.712,34.004C30.045,30.985 28.783,32.637 29.61,35.121C29.942,35.731 30.432,35.878 30.675,35.91C31.381,36.001 32.078,35.512 32.454,34.661L32.503,34.543C33.067,33.091 34.678,25.886 34.831,24.827C34.873,24.545 34.731,24.269 34.477,24.14Z" style="fill:rgb(190,25,49);fill-rule:nonzero;"/>
                <path d="M26.714,34.003C27.104,34.15 27.553,34.095 27.958,33.829C28.496,33.476 28.851,33.424 28.991,33.486C29.138,33.55 29.265,33.836 29.33,34.248C29.389,34.615 29.49,34.897 29.612,35.12C28.784,32.636 31.559,28.389 26.714,34.003Z" style="fill:rgb(41,47,51);fill-rule:nonzero;"/>
                <circle cx="7" cy="9" r="1" style="fill:rgb(41,47,51);"/>
            </g>
        </g>
    </g>
</svg>
