<?xml version="1.0" encoding="UTF-8" standalone="no"?>
<!DOCTYPE svg PUBLIC "-//W3C//DTD SVG 1.1//EN" "http://www.w3.org/Graphics/SVG/1.1/DTD/svg11.dtd">
<svg width="100%" height="100%" viewBox="0 0 151 20" version="1.1" xmlns="http://www.w3.org/2000/svg" xmlns:xlink="http://www.w3.org/1999/xlink" xml:space="preserve" xmlns:serif="http://www.serif.com/" style="fill-rule:evenodd;clip-rule:evenodd;stroke-linejoin:round;stroke-miterlimit:2;">
    <g transform="matrix(1,0,0,1,0,-50)">
        <g id="straight_shrimp" transform="matrix(1.07092,0,0,1,0,50)">
            <rect x="0" y="0" width="141" height="20" style="fill:none;"/>
            <clipPath id="_clip1">
                <rect x="0" y="0" width="141" height="20"/>
            </clipPath>
            <g clip-path="url(#_clip1)">
                <g transform="matrix(0.933775,0,0,1,0,0)">
                    <rect x="0" y="0" width="44" height="20" style="fill:rgb(85,85,85);fill-rule:nonzero;"/>
                    <g transform="matrix(1.10309,0,0,1,-4.53608,0)">
                        <rect x="44" y="0" width="97" height="20" style="fill:rgb(68,204,17);fill-rule:nonzero;"/>
                    </g>
                </g>
                <g transform="matrix(0.933775,0,0,1,0,0)" font-family="Verdana,Geneva,DejaVu Sans,sans-serif" font-size="110px" fill="white">
                    <g transform="matrix(0.1,0,0,0.1,31.5,14)">
                        <text x="-82.124px" y="0px">ebi</text>
                    </g>
                    <g transform="matrix(0.1,0,0,0.1,91.5,14)">
                        <text x="-439.543px" y="0px">:straight_shrimp:</text>
                    </g>
                </g>
                <g id="straight_shrimp1" serif:id="straight_shrimp" transform="matrix(0.363135,0,0,0.388889,11.2053,10)">
                    <g transform="matrix(1,0,0,1,-18,-18)">
                        <clipPath id="_clip2">
                            <rect x="0" y="0" width="36" height="36"/>
                        </clipPath>
                        <g clip-path="url(#_clip2)">
                            <rect x="0" y="0" width="36" height="36" style="fill:none;fill-rule:nonzero;"/>
                            <g transform="matrix(0.795191,0.606359,-0.606359,0.795191,6.89247,-2.50095)">
                                <path d="M4.458,7.875C-0.072,8.195 -0.317,2.364 8.259,3.137C16.835,3.91 26.223,6.537 28.477,4.926C30.266,3.647 29.893,1.318 29.443,0.848C28.993,0.379 28.311,0.803 28.656,1.53C29,2.258 28.594,4.208 26.394,4.405C24.195,4.602 15.994,3.053 10.819,2.324C5.534,1.582 1.287,1.95 0.364,4.906C-0.555,7.853 2.308,8.779 3.822,8.923C5.336,9.066 4.458,7.875 4.458,7.875Z" style="fill:rgb(190,25,49);fill-rule:nonzero;"/>
                                <path d="M6.083,7.154C1.541,7.154 1.708,1.321 10.208,2.696C18.708,4.071 27.887,7.353 30.25,5.904C32.125,4.754 31.916,2.404 31.5,1.904C31.084,1.404 30.375,1.779 30.667,2.529C30.959,3.279 30.417,5.196 28.209,5.237C26.001,5.28 17.93,3.157 12.819,2.066C7.6,0.952 3.337,1.021 2.208,3.904C1.083,6.779 3.875,7.904 5.375,8.154C6.875,8.404 6.083,7.154 6.083,7.154ZM14.228,14.835L14.008,16.572C13.939,17.12 14.326,17.62 14.874,17.69C15.422,17.759 15.922,17.372 15.992,16.824L16.256,14.742M18,14.73L18.155,16.773C18.196,17.323 18.677,17.736 19.227,17.695C19.778,17.652 20.191,17.172 20.149,16.622L19.983,14.445M21.915,14.825L22.11,16.806C22.164,17.356 22.654,17.756 23.202,17.704C23.752,17.647 24.154,17.159 24.1,16.61L23.886,14.444" style="fill:rgb(221,46,68);fill-rule:nonzero;"/>
                                <path d="M13.247,13.762L13.027,15.499C12.958,16.047 13.345,16.547 13.893,16.617C14.441,16.686 14.941,16.299 15.011,15.751L15.275,13.669M17.019,13.657L17.174,15.7C17.215,16.251 17.696,16.663 18.246,16.622C18.797,16.58 19.21,16.1 19.168,15.549L19.003,13.372M20.934,13.753L21.129,15.733C21.183,16.284 21.673,16.684 22.222,16.631C22.772,16.575 23.173,16.086 23.119,15.537L22.905,13.371" style="fill:rgb(190,25,49);fill-rule:nonzero;"/>
                                <path d="M29,15C32.34,14.256 35.364,11.427 33.378,9C30.535,5.525 4.812,4.938 2,9C1.438,9.812 1.522,13.671 5,15C6.763,15.674 25.505,15.778 29,15Z" style="fill:rgb(221,46,68);fill-rule:nonzero;"/>
                                <g>
                                    <clipPath id="_clip3">
                                        <path d="M29,15C32.34,14.256 35.364,11.427 33.378,9C30.535,5.525 4.812,4.938 2,9C1.438,9.812 1.522,13.671 5,15C6.763,15.674 25.505,15.778 29,15Z"/>
                                    </clipPath>
                                    <g clip-path="url(#_clip3)">
                                        <path d="M27.569,9.027C27.215,10.221 27.191,12.188 28.277,10.003C28.909,8.732 30.4,8.121 32.04,7.75C31.085,7.302 30.151,7.037 29.245,6.883C28.484,7.383 27.84,8.109 27.569,9.027ZM24.575,9.285C25.192,8.008 26.675,7.38 28.309,6.991C27.233,6.721 26.134,6.567 25.03,6.515C24.491,6.99 24.06,7.598 23.856,8.318C23.515,9.517 23.512,11.484 24.575,9.285ZM20.408,8.745C20.048,9.99 20.733,9.633 21.425,8.598C21.888,7.904 22.681,7.088 23.566,6.439C22.966,6.317 22.363,6.223 21.757,6.165C21.145,7.067 20.604,8.072 20.408,8.745L20.408,8.745ZM29.251,15.174C34.254,14.108 32.281,12.583 32.281,12.583C29.816,14.866 5.362,14.055 2.715,13.265C3.221,13.971 3.955,14.601 5,15C6.491,15.569 23.575,16.384 29.251,15.174Z" style="fill:rgb(190,25,49);fill-rule:nonzero;"/>
                                        <circle cx="7" cy="9" r="1" style="fill:rgb(41,47,51);"/>
                                    </g>
                                </g>
                            </g>
                            <path d="M27.208,24.374C26.857,24.612 27.762,26.827 24.933,27.079C19.622,27.552 23.845,27.38 25.441,28.324C25.532,28.397 25.634,28.464 25.747,28.524C26.17,28.745 26.598,29.111 27.019,29.613C27.873,30.63 28.632,32.148 28.95,33.482C29.074,33.996 29.286,34.436 29.579,34.787C30.118,35.426 30.893,35.686 31.51,35.433C31.63,35.384 31.736,35.317 31.829,35.237C30.847,31.123 31.639,32.911 34.061,33.353C34.714,33.355 35.057,33.017 35.193,32.831C35.587,32.291 35.499,31.495 34.968,30.8L34.893,30.706C33.95,29.584 28.739,24.998 27.935,24.392C27.721,24.23 27.429,24.223 27.208,24.374Z" style="fill:rgb(190,25,49);fill-rule:nonzero;"/>
                            <path d="M31.829,35.235C32.127,34.98 32.284,34.585 32.248,34.13C32.201,33.527 32.318,33.211 32.433,33.124C32.552,33.031 32.845,33.056 33.214,33.189C33.544,33.306 33.822,33.35 34.061,33.351C31.638,32.91 29.392,28.701 31.829,35.235Z" style="fill:rgb(41,47,51);fill-rule:nonzero;"/>
                        </g>
                    </g>
                </g>
            </g>
        </g>
    </g>
</svg>
